<svg xmlns="http://www.w3.org/2000/svg" xmlns:xlink="http://www.w3.org/1999/xlink" width="304.06" height="245.068" viewBox="0 0 304.06 245.068">
  <defs>
    <style>
      .cls-1 {
        fill: none;
      }

      .cls-2 {
        clip-path: url(#clip-path);
      }

      .cls-3 {
        fill: #fff;
      }

      .cls-4 {
        fill: rgba(255,255,255,0);
      }
    </style>
    <clipPath id="clip-path">
      <rect class="cls-1" width="304.06" height="245.068"/>
    </clipPath>
  </defs>
  <g id="구성_요소_9" data-name="구성 요소 9" class="cls-2">
    <g id="그룹_167" data-name="그룹 167" transform="translate(98.312 80.533)">
      <g id="그룹_166" data-name="그룹 166">
        <path id="패스_125" data-name="패스 125" class="cls-3" d="M2544.248,7075.426a30.2,30.2,0,0,1-16.633,17.367,37.663,37.663,0,0,1-15.124,2.713h-18.068v38.369h-21.375V7032.148h39.443a35.421,35.421,0,0,1,15.371,3.039,32.606,32.606,0,0,1,10.45,7.623,29.938,29.938,0,0,1,6.062,10.27,33.8,33.8,0,0,1,1.9,10.834A34.211,34.211,0,0,1,2544.248,7075.426Zm-23.2-21.779a12.939,12.939,0,0,0-9.572-3.773h-17.057v27.818h17.057a13.06,13.06,0,0,0,9.627-3.639c2.44-2.5,3.656-5.869,3.656-10.139C2524.763,7059.6,2523.511,7056.182,2521.052,7053.646Z" transform="translate(-2473.048 -7032.148)"/>
      </g>
    </g>
    <g id="그룹_170" data-name="그룹 170" transform="translate(133.01 105.205)">
      <g id="그룹_168" data-name="그룹 168" transform="translate(86.731)">
        <path id="패스_126" data-name="패스 126" class="cls-3" d="M2612.41,7059.814h-.283c-2.531-10.83-22.309-16.484-41.874-16.484s-39.346,5.654-41.877,16.484h-.284a5.555,5.555,0,0,1,0,2.375v102.146c0,12.375,21.208,18.857,42.162,18.857s42.157-6.482,42.157-18.857V7062.189a5.555,5.555,0,0,1,0-2.375Zm-42.157-7.662c18.537,0,30.6,5.217,32.9,8.848-2.3,3.629-14.364,8.846-32.9,8.846s-30.6-5.217-32.9-8.846C2539.651,7057.369,2551.714,7052.152,2570.253,7052.152Zm0,122.215c-20.681,0-33.336-6.5-33.336-10.031v-5.166c8.116,4.545,20.756,6.9,33.336,6.9s25.216-2.352,33.333-6.9v5.166C2603.586,7167.871,2590.929,7174.367,2570.253,7174.367Zm0-17.125c-20.681,0-33.336-6.492-33.336-10.029v-5.523c8.116,4.543,20.756,6.9,33.336,6.9s25.216-2.354,33.333-6.9v5.523C2603.586,7150.75,2590.929,7157.242,2570.253,7157.242Zm0-17.48c-20.681,0-33.336-6.488-33.336-10.023v-5.531c8.116,4.549,20.756,6.9,33.336,6.9s25.216-2.352,33.333-6.9v5.531C2603.586,7133.273,2590.929,7139.762,2570.253,7139.762Zm0-17.482c-20.681,0-33.336-6.494-33.336-10.031v-5.514c8.116,4.547,20.756,6.9,33.336,6.9s25.216-2.352,33.333-6.9v5.514C2603.586,7115.785,2590.929,7122.279,2570.253,7122.279Zm0-17.469c-20.681,0-33.336-6.5-33.336-10.039v-5.521c8.116,4.547,20.756,6.9,33.336,6.9s25.216-2.354,33.333-6.9v5.521C2603.586,7098.311,2590.929,7104.811,2570.253,7104.811Zm0-17.486c-20.681,0-33.336-6.5-33.336-10.037v-5.514c8.116,4.543,20.756,6.9,33.336,6.9s25.216-2.354,33.333-6.9v5.514C2603.586,7080.828,2590.929,7087.324,2570.253,7087.324Z" transform="translate(-2528.092 -7043.33)"/>
      </g>
      <g id="그룹_169" data-name="그룹 169" transform="translate(0 49.723)">
        <path id="패스_127" data-name="패스 127" class="cls-3" d="M2530.934,7065.869c-20.948,0-42.157,6.475-42.157,18.844v52.438c0,12.375,21.209,18.855,42.157,18.855s42.161-6.48,42.161-18.855v-52.437C2573.094,7072.344,2551.885,7065.869,2530.934,7065.869Zm0,81.311c-20.677,0-33.333-6.494-33.333-10.029v-5.166c8.117,4.547,20.754,6.9,33.333,6.9s25.216-2.35,33.336-6.9v5.166C2564.27,7140.686,2551.615,7147.18,2530.934,7147.18Zm0-17.123c-20.677,0-33.333-6.494-33.333-10.033v-5.52c8.117,4.543,20.754,6.9,33.333,6.9s25.216-2.355,33.336-6.9v5.52C2564.27,7123.563,2551.615,7130.057,2530.934,7130.057Zm0-17.48c-20.677,0-33.333-6.488-33.333-10.025v-5.529c8.117,4.549,20.754,6.9,33.333,6.9s25.216-2.35,33.336-6.9v5.529C2564.27,7106.088,2551.615,7112.576,2530.934,7112.576Zm0-17.48c-20.677,0-33.333-6.5-33.333-10.033v-.35c0-3.533,12.656-10.021,33.333-10.021s33.336,6.488,33.336,10.021v.35C2564.27,7088.6,2551.615,7095.1,2530.934,7095.1Z" transform="translate(-2488.777 -7065.869)"/>
      </g>
    </g>
    <g id="그룹_173" data-name="그룹 173">
      <g id="그룹_171" data-name="그룹 171" transform="translate(23.078 23.078)">
        <path id="패스_128" data-name="패스 128" class="cls-4" d="M2537.81,7006.1a98.864,98.864,0,1,0,0,197.729c1.173,0,2.333-.047,3.5-.09v0A98.737,98.737,0,0,0,2635.1,7087.49l-15.2,6.154,15.2-6.154A99.006,99.006,0,0,0,2537.81,7006.1Z" transform="translate(-2438.945 -7006.104)"/>
      </g>
      <g id="그룹_172" data-name="그룹 172">
        <path id="패스_129" data-name="패스 129" class="cls-3" d="M2550.429,7216.449a98.864,98.864,0,1,1,97.286-116.344l21.769-8.814c-12.058-54.635-60.85-95.648-119.054-95.648a121.94,121.94,0,1,0,0,243.881c1.171,0,2.329-.055,3.5-.09v-23.072C2552.761,7216.4,2551.6,7216.449,2550.429,7216.449Z" transform="translate(-2428.484 -6995.643)"/>
      </g>
    </g>
  </g>
</svg>
