<svg xmlns="http://www.w3.org/2000/svg" xmlns:xlink="http://www.w3.org/1999/xlink" width="43.189" height="40.033" viewBox="0 0 43.189 40.033">
  <defs>
    <style>
      .cls-1 {
        fill: none;
      }

      .cls-2 {
        clip-path: url(#clip-path);
      }

      .cls-3 {
        fill: #575757;
      }
    </style>
    <clipPath id="clip-path">
      <rect class="cls-1" width="43.189" height="40.033"/>
    </clipPath>
  </defs>
  <g id="구성_요소_2" data-name="구성 요소 2" class="cls-2">
    <g id="그룹_62" data-name="그룹 62" transform="translate(6.825)">
      <path id="패스_65" data-name="패스 65" class="cls-3" d="M773.707,6426.158a1.006,1.006,0,0,1-1,1h-2.214a1.006,1.006,0,0,1-1-1v-6.3a1,1,0,0,1,1-1.006H772.7a1,1,0,0,1,1,1.006Z" transform="translate(-769.484 -6418.855)"/>
    </g>
    <g id="그룹_63" data-name="그룹 63" transform="translate(33.091)">
      <path id="패스_66" data-name="패스 66" class="cls-3" d="M845.977,6426.158a1.007,1.007,0,0,1-1,1h-2.215a1.006,1.006,0,0,1-1-1v-6.3a1,1,0,0,1,1-1.006h2.215a1,1,0,0,1,1,1.006Z" transform="translate(-841.754 -6418.855)"/>
    </g>
    <g id="그룹_65" data-name="그룹 65" transform="translate(0 1.291)">
      <g id="그룹_64" data-name="그룹 64" transform="translate(0 0)">
        <path id="패스_67" data-name="패스 67" class="cls-3" d="M792.469,6424.554h-4v5.847a1.725,1.725,0,0,1-1.538,1.864h-2.468a1.727,1.727,0,0,1-1.54-1.864v-5.847H762.159v5.847a1.725,1.725,0,0,1-1.538,1.864h-2.469a1.727,1.727,0,0,1-1.54-1.864v-5.847H751.52a1.256,1.256,0,0,0-1.12,1.36v36.028a1.253,1.253,0,0,0,1.12,1.354h40.95a1.253,1.253,0,0,0,1.119-1.354v-36.028A1.255,1.255,0,0,0,792.469,6424.554ZM765.346,6461H752.772v-6.875h12.574Zm0-7.588H752.772v-6.887h12.574Zm0-7.6H752.772v-6.887h12.574ZM778.516,6461H765.943v-6.875h12.574Zm0-7.588H765.943v-6.887h12.574Zm0-7.6H765.943v-6.887h12.574ZM791.688,6461H779.113v-6.875h12.575Zm0-7.588H779.113v-6.887h12.575Zm0-7.6H779.113v-6.887h12.575Z" transform="translate(-750.399 -6424.554)"/>
      </g>
    </g>
  </g>
</svg>
